<mxfile host="65bd71144e">
    <diagram id="V8jgP9fGjTdDlTAhrgPa" name="Page-2">
        <mxGraphModel dx="502" dy="537" grid="1" gridSize="21" guides="1" tooltips="1" connect="1" arrows="1" fold="1" page="1" pageScale="1" pageWidth="827" pageHeight="1169" math="0" shadow="0">
            <root>
                <mxCell id="VBnDBWcCPKf7bS7GrJzQ-0"/>
                <mxCell id="VBnDBWcCPKf7bS7GrJzQ-1" parent="VBnDBWcCPKf7bS7GrJzQ-0"/>
                <mxCell id="VBnDBWcCPKf7bS7GrJzQ-2" value="" style="shape=image;verticalLabelPosition=bottom;labelBackgroundColor=#ffffff;verticalAlign=top;imageAspect=0;image=data:image/jpeg,/9j/4AAQSkZJRgABAQAAAQABAAD/2wCEAAkGBxITEhUSExMWFRUVGRgaGBgYGRodGhgYFhgXGBcaFxoZHSggGhsnHRgYITEhJSkrLi4uFx8zODMtNygtLisBCgoKDg0OGxAQGy0mHyUtLS0tLS0vLS0tLS0tLS0tLS0tLS0tLS0tLS0tLS0tLS0tLS0tLS0tLS0tLS0tLS0tLf/AABEIALcBEwMBIgACEQEDEQH/xAAcAAACAgMBAQAAAAAAAAAAAAAFBgMEAAIHAQj/xABDEAACAQIEAwUFBgQFAwMFAAABAhEAAwQFEiExQVEGEyJhcTJSgZGhBxRCscHRI2KS4UNTcqLwFTOCJNLxFlRVo7L/xAAaAQADAQEBAQAAAAAAAAAAAAACAwQBAAUG/8QAMhEAAQMCBAMHBAICAwAAAAAAAQACEQMhBBIxQVFh8BMUInGRocGBsdHhBTJS8SMzYv/aAAwDAQACEQMRAD8AbUz3DHYXJPof2qVc+w4/H/tb9qTLeH24/EVMqgcNz0rzBjapMADr6r0Dg6Q1JTZ/9R4aY1NP+lv2qQdobHR/6DXNbmMZiXZQEA9ueAUwdhuTNEcmxTHZmJHmPqOcetCcdVHBF3KnzTpdzi0eAf8AprVM1T3X+VCD60Gxee91d0NOmBvHnWDG1jw9ELsNRaJMp0TPh/lv9P3rcZ4Cd7b/AE/ek4ZuCCyuDE7c9ugq3hnd4IJM8Old32ty9FrcNROn3TYM9A4Wm+Y/evGz8/5Lf1ClPDjEMxBJXpwqfF274GzAeZrBjK3EeiPudIbe6YjnzH/B/wBw/avFzl/8n/d/akk4m+oLsxKg8QNp9aYsDld+5b1M4QkbDifjXDF1naEegQ93oz+0XGdPw7tfi/8Aat/+q3I/7a/1H/20D+6Xo06vjNTrhLsRqnbjND3ytx9kXdKXD3RNM0vf5aH/AMj+1etmd/8Ayk/qP7VraiADxrfu1863vdb/AC9h+EPd6XD7/laHM8QASbdvb+Y/tUS5/d9xI9T+1SNaPvGst4Q8orBjK3H2H4W93o8Pc/lef9aue4vzNSrnL+4vzP7Vhw7H3flXhwvpRd6rHf2CzsKXBSrnB90fOt1zUn8I+dVxhD/LULbGNtq44mr/AJLewpcET+/N0FeffX6ChD49B+IDlSziO1F0O+lfCkQeE8uHMz863vNXigdSpNEkJ/GLudF+tYuMO/s7ceO1K+O7QOlhjK94AsCOb8ARXmGzEaS1xWdo3IUwDtsAP1rRiasxJ6+iW5tECbJkXMdfslDHHetfvDcyornWEv20uTpuJcMwwBggtudJjyq12sxty3xc+yNOgHc9Z4RWnEVhulsNEgkiE/JjG4DQfiak++uPwL8z+1ciynGEtLXTqnbeJmANzw3P0p9zHGdxaBckkASZ4mN644msNT9vwmU2UqkwEwrjn9xf6v7Vo+Kue4v9R/alvIMXcvjXuqE+GeJ846UxNhYEyaWMc8mA77fhF2VGYVe9mDg721/q/tVa5m7f5a/1/wBqmGkkwdx6VWxGG8l+tH3mr/l7D8I+70uC1/6q/wDlr/X/AGrKg+5n3f8Acayu71V4+wWd3pcFzFsc+sDWgEx7Rk+QA4mjN4FGAdjtE7Gd+XUVQ7B27GFRr9y33l4gFS0wOomIEUwtmjpbfFXrLLdxErZZ4hQeLdeERRiiyZB660CXTdUA8V56hAr7hrmgDxMCAskTPw2bYVsiX0cK6925G08Ao4xWmJtglH1HvFIbYbSKM4PtPfLvdt4Y6ICtA1bgbjrFRPdJn3VL3vpXiRwRBWMAFwSelLuPRu+QkACdJPGecQdo4USxGMV7ZdQUYyQscKBtmV1ybtyBbQAafePKRx+NbTzE2SsW4/1NgpLiIl5jbQtAMgrssxyB33NM9nLLtlA5XTaAk7zBPDgdhSjneYMtw3cOddu8gUx7S8CNuQFX8r7UX7vdYS+hS0xHev1AI4keyCeZplRu/wBlPRqFh0t8Jsyy1dvb2gAvDU3AnoOtMGC7M/ivPr8uC/Ki2Aayi+DTpAGmI2260ldtO2lxSbGDXvbrcdAkJttJ4TSA1pbLnSTsPkpr6rnWlXO2Fy41oWcJY7whhqIgKADvx4mtcBnCokOCHA9kjeqPZHOytsWr8pdSA4bmeZnnNQ57mli9i7NollQSXdeflMcuNFlytkET19tlRTDaTDm01kK3bxV122nc7AVPi9VtNT3CD7v96is3Vtk905ZNRCuYmBxP5j4UKxli9imKoTHvHZR6mmtYGi9yUZdm0sFvZz60X31+uv58quYPNNZIkxy3n69aS+0GXJhbYuQmIltJ1sfA25IAT9an7L5lbupcAXQ9sqwAJ0sJjYH8qoNMFuipbRbELoNq4CJk14MUo2l6q5eQ4jgeY6TVj7g3KpTTg3STYwVL34/nrdcWo94+tT2LPhAYb1KtlfdoYCHMqN7MVAnSas5RbN7Dm94ZIJC/lJ61OMKseyKBG29x72FsOLI0gluO7zAUfOa4AA3SqjiGy0xCH5zggUCoRLEmZkqTvseVCu01kIs2yZIRiJiCpPM8hFOOW5phBGFxIVbtuFJYCHMcVPn0ouezuDZSe6QzvEcaJj40Fzz/AEonuLzpC5plot3EW4xFt2A4mTriCRPEQSao4vMdHeorObhLbE6dQAAmB5V1TEdkcKVA7lAF4aRuPMEc6RO0+R2sLc7u43guDwMfa4iVkc+FMzvZ4XNj6yg7Od0mZX2jukqrMTbQkjVyedgDx008ZzjXu2BDKUuxvA/hge18KD5Z2atuxIWUBUHUJYjqCDHDnTBnPZu2MGbWFDQd5JM+dc+oHXCZRoum/XwlbIcm+84qbZItJsWj2iOnWnDtl2bu/dP4TF9AmDMkDj60L+z6/wB2iW2EFZDD+ad66MFRQ76ide8E7D08qjNcuL+Xxp5yiDjTdACTuyeIGm2RusCmdwqBz3jNrM7nZfIeVBsvyy0jEpIkkwDtvQvtHiDav22uk/dxyB4vOwbyqRmHqMJB/qb8+uaeaIBk6LbKWGGa7cvOYDFhG+oGZ/T5UbwmN7y2lyI17qOe+4+MVVtZfavXXvi34SijSfYMgyyg8+FWMpwShZQTHQyAR0q5ovA3QtdLiWiNJn4VjWeh+Ve1a0N0PzrKdCdK4ocWLNpb7Q3ek6bcyvhiT5zPCp73aw3kVbiRoJEbErHAgESpjlwoRhssNxbVkHU9hjPABtW7LbMjVpMfKq17LyjK11WtgGbjOdzB/CsmSw2516Igjw6Feb2k33R7DIbTateqZ2P50YyjNnw7l7Q169gnLUeFI2MzgNquHaWJCgcjwBPkIol2azRmdGZbndrcBJVToG+/i5R61FWoQMwVIxAc0tqfRHbWbXrbNhmTUxBJjcJO5mOFUMVlj37gtooRWg7TIHvGeAMc6YMbirWHbudlVhrZvadwxmGbp+lQ5tiNeHDoQWuPphdp5LMeQ+lC0NZOVTGoHapbu4ZrKygjQdL8YM/rRy7j/u1rTYQ4jvQA76TohhGiY5Hegl25d8Ss+oLsxHUdfymn7sRdN7K3w8gXbeo/M6h+1HTpdo6OR+vBG+pNPwzA1VLKuzWGsoDcu3LxO+nW2gTyiYj50WTHInhtoqKOEAUqYPPUKjUYKeFh6VEnaS3q0Wla43HYE+pgUrtcp8IjrclLyElE867xr9llPhughm22KnnO24/KrWOwDKSvtR+IRQa1icXexNu0w0W2GoEgSANtgOFN2NwJtKDqkHbcc/hSnguOb5Xp4bMGgk/TZK2ZY02basTpiAARMyfpQftDnuJuIAz6bfAKu0/6o40zZhgxftMjRPLbgeVKOLwF9yFddWkQI5gcJHWvQoVAGwU1jGl0lBcIW1aV3GxZeu/EdT50cyDCuHvXBuLagCOMO25+lXezmQJJa9rWZGw2A6jz2FH8Bk9u2+qyzljsTwBHKetG6qIVDnMBRvsviEfW9sOBHiB4BqYWbnUWFsCzZhhD3TJAHADhMVIgEc4qOuRIlTOfncXDT8LcEVIorRAPOpFpKErLi+ExQXssttjeFwKLwJlz7Q3OmPKjsCKBffsNgmvXr2/eaYgSRAiPStDZcPnRKqNLmwOIQ9Lgw2HxH3u2LoYs0ldRct7M9I2HlSwmbY3A9ybbrcRxJRmMBRxgmSKtdssyuthwqkzc4KBJIPECOcUGxN6wO5S2hV9HEluXEaTzn5zQC4BBkXt1f0VYwjQxznN3H08jaPWF0HA/aCjAW2UJcj2S4gzXP+0WdXsRmA79QFQeAct+dRYn+Feua28bKpkgEaSAYGnf50Gzq4dAdLniB1A6jMb8mH0prWlxgnkJ2UlehTDPDMxJ3joQZPFdeyoJbCMzAE8Rw2pktvaYeVcF7O5izsXxTtcleZ6ctuApjwuZ3FMqblsN7MMYjlE7V1Gi6mCHEE768I365Kuj/GVBTBG910DF5bhwxcAqeo50jdpe0lx764W3c0ofaI4xRK320XSUusTcWBIHtTwMdaVsyyt8Rihcs3bSONyrkg/KN6B7KYMmAfmLcVPV/wCMw/ULqeUrbtWVfSXG2qASd+fnQjtl2W+837BW4UTdiOpERAOw4/SoOzGcXrX8O4FYgxCncj3tJiBW9/tE7YtlddKiAnmvGa89xq0qJLQZ4/MniNttVIHFxMHzTXayWLPdlz7MA+UeVCcgyu5h1FrVKLsABvPMk+dGVxVna+5hgsbnaPThNCMLi7rs1wtpViSqxvHKapp1qTiADtP+0TTDYdtojGg9D86yq/38+99KyrM7OPXqt7ULgR7KYk6brOG9vTpBibZ8agmIM0Ju4Lv7sW+8dwJK+6PUnh+9dHx95lwz8il1WiT7OIXQSP8AzQ/OkHKhcGLNxCV0cSOBnkeo5/CvViHKBusrW7lJUQSq+pk/SnHsNj11pgQJs3Bc1zuNUSI5gGtc0wS3lXQqo6ydJjS5aCSDyNRZPmLYdnjQLqIV0MkGDwIPPhUlQ+iKpUzbIpnuHsnEsWt6AioN40AxwA5CBwpWxeZtZNxkCsFOhVA8IDcCPUGjV3OL92ypvYB3YSe9JAKlzCkCfPhVyzgcLbtBcTqF1gZS3uIJ2ZuUgzA86mLQDmN+uvslgINlVy3ZuG4rC5auKVdW9tYJJkc+P0q6l4LalGM8wOOknbhVqz2cw1m5bRlukPEl2UAKfxGN96crGDtWrRYrbZLU7ASxG0T5+VIr1Qw8U+i8gGOXsubrkXe21uamBZhKBfEFniAd+G9NXYvILNtWvW7o8BIbaWIHtBjyNM2DZWtjEW7IV5KhmP4SeZHLhQ7HPbUNbEWrgku6jwkkGd+ZqGriHuGW8dfbby9Gue539igN28P+oW/u9q7cV1I1bnoefAedM/ap76Wh/BfSN2bYgR1gzQ/7LcR/DuOx1MXZQT7qmB+/xroN62H8RJIggr+Ez1FPZUs4cPhNp1nMAELmnZyxfxEsgCqObc/QVYxWDYNDQD1qHI8xTD4u7h5hFc6ekHePhMfCmLOntuw0kdaQzFVRWDSPCdPIiZHlF7p7KjnPgoXYy5o5mr+CwpVgxBkVvhBHsmOtWbuNVZBYAgSZMR5sfw16dMl1wITKjstiVHiUd21GZ9YrcYZyBDEfEVXx2OUQA+7RDEqBvwAHFifhQDDdrEuXSFOoSVXSfCdJAJkg+ZJggAEzWkNJJmTup3YlrQOCcrdjbcn51J3Hr86TLXb9BcNt7b2yGKmWBEg6TEKJ3pswWZW7glWHp61mSdFtOs1+hUtyz4Tx+dIGY2GF5vvFstZPAkEgee3Onq/jwqmZ2pYzntMoDKRIA325Uh6souLXTEpPuYhy9pw+pAW7pfIHiefCve51XNbLMRpM8GB3A5zv0oFjMaXvLcw9poT00+scBRvLsDfva7qLI0wVJGsHjI3IMnnNUCkWMnZH2gc7+1zP2ERcCSd5gKG3Z7sjFSTcclWRgN5OkDy5UH7Sq+hLfHRJ2G8MZMnmJ2oviMQUtKLyMz6iNLHz8Mc9uo6UYy3JUxCG7qgDwsszIjbiKJsNIcEVWs8t7N2h/RMGJN9wCDIuk7KGkHjO23lzroPZ97JAFyNhsSdth/eh7dlbTuO5uLbccJO23UCh3aTKb1lJ1oSsxE/Wia8B4dHqr+8UKtEMeYI85+kWQ7tFiFbGoLAksYAH5ijmH7LWrpHeBjeYgatR0gnp59aD/Z/gZvNeYyyoWBPAE+Ffqa6Ppi34ASwgg8CxUgnbkOArqoLicpg8R6+i+YxtcVaxcBbT0tfml7POx74bTicM1x2tDxguTqgb7Hh8KPoBj8INwpYeB/xW36HqJ2imHLb+tdW3iA2P1H9qC5TljWMTibSqe7JS4J5awfD9JoKDT/U3lSl5b4m2IQDsp2fuhZxFx2Kkg6mJEgwdIOwHnRG/n5ZjawqB9OzXD7C+h/Eal7T3nuOuDtHSWGq6w/Ck8NuZM1Tx2Lt4RUsWVBusPCPdX32/Qc6hLQHHjfr9Ii4lXFsXzxvtPOBt8Kyq1ns1fcB2uQzbmZnfrvWUOU8Fspf+/Wrve2FJJuIAoOx1I4cfDY/OosPkht24AGp/FPDiNp6RQFUaZBMjnTNkmOugd25DT7JPP+Un8jXssxUmHKx2CAFvdVSigBdNxmPEBeG8CPXrRDNcDZxCLYmHjZlbxrHVucdKL47KC9tbihrZMSCIIHOI6UuZlkDITetFjbSNT6t1JPzM02C1ec5kGCiWFxn3Qot621y1pg3OI2AIMciCOdDsPe+94l7vfQiHaLfiA3ImOJ2mpMuzAhCLpNwswVgw20DkJ258fKtLGXWbN1r2GxXdaiCyEExE+yeXEiKndS1DT15oFpn2YWmuXDbN2850ICSFHqqj6zRnJMp+9PeD4lttACWzEwJOqlDNLwu3gLCktqEN1PXzpty/DthrtruiqkNDBuNwPEsY4eXHhXn4vwDUHrqOfKVY2kWi+6P4XLlsW31JdYXGUIhYmCOG0+HcTSj2vx18XTZs2oU6SwgmG5mRyo72mzvEW762kdW1srCB7MciaI/c7YIxdy7pLLpZduJqJhDHBxAM3vHHW0eiMAtgwljLO/wYW4V1Wn3kbGfKj+B7VPibq4e2ptqRLueMDko6+dDL+MLA2p1WlPhJ4xymq2GtlLqupAIPzHOufRzgud/Yj1Vgoktk6rpOG7N4QCBZQ8ySoJJPEkncmgfaHJDadO40qryNJBMEdN+FMmX41dAYsII61RzPFG5uo8IBg9TzqrDtZVy5Rffy5pNHO119Ev5tjTh7SqoBdjC+oG7x0HL+1ImVYm7cZsSri4o7xWU6iGVWEOBvLErt0kdSas9p75xGLRCJthjZlSR49BMNw9rjA6gUJuLbsW3KNpBZQE1SGOoCQOI5k7c+VenWFxTbyGluaspUWVaNRzrgNk8RpGsC4B61t4nE3cSGxFkgrabYESytEeIbQRIPmAd+VSZPlVsWtaAFiYRv5p2cn8Krxkbk8IMUFynNsQlxFw/dqGMvO4EMRB5778ZO4350fzLUti+sE3WKFNB8TJ/EDhAOYUkEAbSTxoHNhwYLT19bz9xqvOoNNNjntbImMx22uLx0DwRbH4PD3nNy6qFrottZOopq1Lq0PB0hxMBjsYUGONLGS51cwuN7qX47B/a2mUbzBB/+aKRZvKgLnTpKgIQzeFS5XhAYGRvPHgaWrNjvr83LrMQsI4XxFRtDyROkAkMDO3kBWgDU26681OZpkAOkC9pi/nx3XY8RZGItrdttpB4wAYP7VzPtvll6yHOokGOQAj4U0/ZtmY1myGZkhSC0SwPOBw5czTdjsnt4m2dQBGp0/pMT9KKqzR41/Ylekx2x0+yQuyoT7nbQgEwSRA4Tt+tCbV44bGXrlk6LegatpUOZ1COE+z86Zz9npWUF0Nb3IVgdSz7rKQY8jRVckNm01u0iEMpDAgGZ5052IaaeUqcUndoXDRDMH2bv41Ve6Ug7rqEGOscqs592LxduzNh0YD2oHijm3nFNOQ3BHd810kjnHOmrEX0RGdiAoBJJ4QKNuHpubPugdiqrTl24LnnZ3s3atopKlmiSZnhvwPWmDFZUmhhEMBwAGnzG48XrS7kmfi4CrKyAagDp2KnYQeUCilzOC1o9wVYxpnVKiPaJk86RRsyWzO/HkiqTmhyALkyp3lxE7suhRlHs6lIdGUcp3q1lrkqfenxTttHDflxJqa3jGaAWDqv/AHHX3okW7ccSBuem1EsvOHuofASp2bVx+NGGEHb97pD6YdcH2Khyk7uYHdwDJGxMHVFUr/aC0+MFqzBZRF48oUHSB1MtRjPcErWdKmAB4QOAHKK5Hdwl7CO9+3HAgyDsDxNIqvc2zbHiiGFOTMDKdrVxV7/FNwliT/Lb2A+hoX2NwDXmOKvCbl06yDyH+Gg9BVm+k5bA4MqL/WQD+dM3ZjCgAQOH5LsK82m2SGjfrrySgJjmiK4BuYrKKy1ZXqdgzgqrcAuERh+jVIGte84+FWrmBHuimrs72dw1y2rsupt5HQjh5VHSp9oYB+/wPwr6tUU25ipOxmbLfU4a4SxCyrNxK9D5ivc1vW0u/dQC2oTsJ6jeKAY3A9zdZVGmD4SNjBq5kOOWzd1ONnhWY7kTwNWMxMRTfsYlSVMK101G7jRDc+y95ULI+UAc6C4yyQCYLKNiVGwPmeFdTzvK1v2mUceKnffp8KA5W1lLYtj/AAwSwHHvDsQU51S6nmOXTn8el1LSDW+LU8Pnr30SFlttnuotgNrJ8Onj6+W1dCu9jLrS5vKLuiASpOn4giiPZPKrKNcuKqm5spYCD1YEcjwpnSfOkjAUyfHdMq1sxsFzl/s6vRqN4s3E6f770uZ9luLW7bthmu6zpXqD/MP1rtPU/wDNqHXLSHE22IEwxHrA+u5onYSnIgLW4h4uUIyHsVZtKO8Xvrn4mbcA+SnarWN7OYa7+AIwkArsQfMc6M3LrL7J49RUtvCCWYneBw6/qacKTYyx7fOqX2jpzSfXoLmGMwl2zd7pt44GSARyNPOFw0WEUn/4iq/arDKXQmJA/WaIY8kWbZUcxPkCCPzipqVMMe/krnVTUY3muSZ24s/eCzww1rbAAJL+OGjjMkeRjmag7NZYL1gX1YrcuA94pAhm5nyY+18Zon2uy5w9x1hmEtpI/mB1jhIAMnfbSNjJibshctW7NxgqgsdRJA3JOkcfMqPSelIxVxbWevyPJQYmIb11sgeU5O1s3rbWRcRStwCQZLPoCyD7EtqLdEjaZolleXq15rl12KKr67uwQHSC6WgAJAWZKjly4Va7SPcOGa4BHtBhCLseAWRHGGJPJeNUMPjbTvbu3bk3QH1gKWUd2pFwsZAKlQfDyYGJgydLxiXIXYio5uWbW9oj7BVlu27TA4coyyzIe6KaEghwNYnUwPEHh4jtqodlVy3buXWd3LvAVniCoAJhuBMkTAEbUUtrbuePUuImUCktbCKwlpDRto5c1kcAABXafCqwS+i67RmFEEMSbkaSN/ExkxyQnkAHFs9dfCRyCN9iLQGIdxtyAk9VI+pO1dXyZwReQb6Hcg+p1frHwrm3YDCaJdhOkAseRZZJPluQvrXRuyWEcI5ciXmmMboOurr0Wu/47nSPuqeHzpXvG0zIkHSstuzRPA8qvNfQceXGKUbmSPcZ8ReAkQlpOBO/iuEfl5U55Vl2mwit42O0nnxO/kB+VJNNxa0AXib/AIW52gkzadvyvLNwMJVd+R50nZ5exNzFW7N12NkkeHkd+ccfjTbjMAUIOsgHoIE+lanKw8d5GobhhzHUVjqNQDlvf4Wtq0557WRaxgkVdKqIEDhXLO3vZ/Tf722ImdQHOOe3Gup27hVY1DhxNDcywKuJO9PrOa5ohIotLXXSLkjp90tFWgobg/8AMvJB6EqVj0q1k2Yv33c29wfaEzG+8n03pcz+/iMPiAttgEaZUgFSQNpFHcgxjssabdud27tY1ACSJoaUVIPVkyoSwEDqbpifMLhkaVCCQpPFgOnlXtnD27gghYI3UjkaqZPZN+6wb2V4+fl6U0YjK0C+FQrKJBHkPypz8O14kJLa5acpQDHZH/6M4eyQTKsus81YEAnkOVG8nw4tW1BI1QJ6DyFTW8KdIZvCIncipFVCNmn5VH2eV2Yi6bDDopO/HWsqLSvvVlFmPRWwFx9rjdTTN2HxRm5b3PBhvHkf0qdOyT82QfM0sY/P7OAxhtOrMyCSVGxVhP8Az0pNLDVqbw4t69U+rXpVGFoN05Ztlqs5cwdgANUCSevpQvFZADOnVEwOB5cTVH/6qv4lEuWcHiDbMFWAWGA8pqbL8wxTOF+5Xk9oy0KJPGYJk1c5lM2cwnnHzqpadRwE5wOUpiyG4yoLbsJUEqdwSo23nhFKHahrTYibJJY7Erw1TAg9aOYyzimtle5cyAIkTHM6qDvlOIUT9zbboR9KViGOyhjGk/pHRcwPLy6P2j3Y6xi0J71Jtt+KRqBHMxxFNormdm9jxwwOKA/1p/76gxed4m3cS3es4i13k6SzAg6dz7LGiFVzG3Y63H82QuptqOs9t+HRXU4O4B4/lSt2txOIS4r2rZC2YYttBHCI4xS8uduPx3Pma8fMtc6jcYHqTSamMa5pEH2/aop4RzXSSCE25fndq8NQcW35q3Xy6irxzG1b8b3VYjgqmZNKGXYFr21u03qdlHqTTbl3Zu2kG5426D2f71tOvVc2coHMzH0G/wBLIKtGkwxJ8rT6/JQwtcxTlkQ+XQeppgyi7rUAiCNiOhGxFX0SBCgAdBQXC3NGNu2+RCv6EgT9d/jR0PC4gzfUm3tt6oHPzi0ABD+0uTaz4TpYGVYcjy/UUo4rLXDBFQBgYblJJB1ERp48xExwNdXxFgNFAcxwoNzcAgR5HrsRXYmmIvuuaGvEOCQs6s3Dcs4adJCFwYBBdYJMhxPErEcm4TQfCYJdYUa7i3GALP8AgkNGluDJJgAmRpAHWuijLyCTCkEfIDkBwA/tQbA5U1vT4gyqZhivH8MaQIAPAVMC9thokOwxH9SkrMu/Fzu7KWXtIpUtIjUwKyVDGRvsGERtO81mHyfEXAQzghWAaJ5HcDUT4p2235HgRXQsJk1uP4iIfFqECACdyZPU7nbck1LesDvGFoRInVyWRB0DrtxO/pTWkud4rcuKJuGMyf0qmU4XQiWY8RM3PKNwnqOfn6U8s/dWJ5xA9T/yfhS52ey2DvxFGe0OHZ0UCdKySRy5A/nVJJDC7fr7apseIN2QPFM06uMedHcrzVW0yQCFYRPPYj6TSTiEeTpbwg7vG3w60fyGxauMqwBsdRB9qOBpWHpPa7O46+8ra9Rrm5QLj2RLH4rvSLaqZJopjYRFBjwj86FY29uVtliFjdV4f+RoNj/vN+VDqig7SCSY5neqXO8JDQSUFOg95BNhYq9isYp2LAirtuWWQdv0pVw/ZveXvMx8gAKP2LekaQzR5mo2Yd5/t91a5lrIdn+QLfXcgMN1boaW72X3rGlgusLzXf1EUzZ7nYwtprjKXUQYAk+fwoPb7Q2GdbivBKwbTKykgkGVkbkV0GkbJb2TZyt9ksUy3ZVSytxXfUD1g10BlJBLCFjfqR0FLOXY5FK3ARG4J9dqZcdeBsFhuPD+YqqlWLmE8FFVpQ8Dih2YHUutzsfkBS5c1nUA5WBIA50ax2LUjT5RQrDnd3JEKIrA0dboiYCENeP+Y39RrKoG2xkwdyayhtwR5V0NzXE/tasaccj+/aj5Ej9a65leK124Ptpsw9Odct+2rD/9l/VfyNWu0UA1VvLcfdtZdgu7uMsq4MHjpbaruW5w7Bjdxbow9n9SYqx9neUWsTluHF0HwawIJH4jPCmVexWDP4W/rNE3RVMq0wzK4X4wEItYpy7J97uMdIK6ZPHiTAqviMW6uUuY112BGx68/hTVl/ZjD2W129SsRE6idvjWY3sxhrr67mpmPPUeXpRQh7WnPLyCSsyza4pHdYp3B84ios3xJe3l9xyWPeXgSePsmPyp0HZDB+6f6z+9bnIsLFtBb1C0zMmokgMw3PnU+JezIWkwTYf61KaKjXRkBsQZtp5pRs5XfvsTaEL1Oyj48/hTLlXZy3bg3GN1+nBB8Ofxo2F5cuQHCrNrDddq8+lhzPhH1Nz9AJaPMlxTKmIJFz6fnX0gLS0p2HAdBwq7ZtGN9q8tqBwrbv5MAj51azDgHMbn169gOCjdVtAsFOABS9lPjuXb3vtt/pHCiGdXNFhzMk+EerbflJ+FRZTY0oB5V1T+wA2TKQsXIg7hVLHgASfhSiMUWJYuoJ349aZs0RjZdV4lfpz+lKSWY5CoMcbtCrwwEEoiqzxb5VNbsr1PzoWL8cakGK8vrUQcQqC2URbCqRwE9TQjPSbKI67kuFMdCCfzAq5bxDdPrQ/tExawwjhBG/NTP/PWjY6DKwtKs5bmRUSyEct/puAaK9o7zi3auACEdWaCeEEESIBBmCN+PClPKlDIQDGqDPUjYxvw+HOneyBewmlpPhIMjmOZgDpMCr2Pc8FvKykqWIPNCMfla32JBZLe0KsCfPyq1lGVW7BlRO0CTMee9V8sxDtZQqJgRuYO21WWu3QJJRfiT+VWMg+LijNNuXLaOuARVVkEdaB5hbCMNIgHb4jjVzLMeXMAFhzaIA+fGo8+Xb4g/oaZEhZTdlfCpo1Tiqtk1YWlqt2q0vKCQGEqdiOoNLnaXL+7XUEL2V5IP4iAe71plujY1dQll5wQOVS4hhkEIHmwK5plmapZe13l0vbuzqiSbc+ybkbA8AeFdSy60qppRtSMOZkb9DQu5kyDWbaqO89oEbMY4nzoZ2cwGKw+udItgnTbJkRMjSfw9INKBLbwkuAfuiOY5Q4YsviB3gcZpdva9RtsrddIHEeflTkcZJEiKr411biJ6cj8DXCrA5IchKH2jdgRZUCBFZUmluRaOXD9q8ru15+y3s+SuW8Ei3GuCZbjvt8qSftgw2rCK/uXF/3SP1p1y7Eq6wrqxXY6SD6TFAftJw+rLr/8oDf0kGvVOi8vdVvslacCvk9z/wDo0dz8NpXS4QktuCRypa+yBpwLDpcf9DTJ2jP8Mb8G6eVSYwxhXn/yVThv+9vmgeNxV23aJDG4+nYKTuYpRzvtC4ZMOouO7xqAdgV8pFXs/wA67lS4O/BAOZoPk1k2AcRdlr9zcDid+QHWvEw002Z4OYmw1v8AXYb+nNfTtokjJx165pg7L5wllkYs+m42hg7MxBnTtq5A10m1hN5J+VcIvY65cxY7wMG8L7iBGrlXfMMfCPQflXq4fDB3/bcgyJ2nbyt63Xm/y7BRyFm4IMaeH/eu6llVrDcY+yPia1VAN+PrW4ea9FeFquddqu1VxrxtIxFu2YaNi54N8B+lV8ssO9waWYAblgTwnbfzoFneHa3iLqNxDsfUEkg/I0Y7MZ0qfwrkAHg36N5UP8hhO0pB1MeJvv1qmfw38u7DVKlOpo/SdARb0i3nB4ppu5k95ktNwtsd+bRt9N6bMEvhFIGBdlW/dBgEhgTxIJLbA7SAwpoyLMnexqJLEc9IEx1EzPoIrz6FQ2zXMK6o0QYEXTDaG59PzpIznIWW6wB8J3Xc8Dy+FGsmzgFXvXjpOrSqjjpXyHHc/SqGd5n38BYQDgSdzXYp9N1IXvqOPRWUGvbVsLb8OgqOFysqDKhvjNXcPhk9wD1qnas3P8wfOiODRgIYyfWvN1KsNlOmFT3VrdsErAgovyrRLoqyl2jbCU6UsYDLTbuFSZ0EiJMQYI2jpG0xTfkDFUK7bmdhwn86B5gdN+feX6jb8oonlVyvSohoghT1BIupcZh1txpAC9B86oWwLnHcTFHcdY12yOZGx6HlQjAYburahjLES3kTxFUt1hFTfLIBvp+0TsEKgQDhzqtmtrUnp+RqMYsb6AWI6fvVVsdiGRj3ECObb/ARTQYulBoByjVUbBq2tB8A9wQbkAsSdPMCedFUNL8lfmDhPUqStsHef2FBMHjyA41oTU2W3CLhA/EPqKXVEtQuHhPXVpRPuPM1o+HB4mvL125yWa2sOxHiEGpbKW4VYW05Ga1ayvGDVxbajcCvGWhyosyoMq1lXO7rKDKizLkvYvMDZvjjoueFtuHQ/A/nT72rs68HiE623/I1y/EZ1jASrXnBG0CB+QroHZfNfvWGKsZdQUfz22Pxr2nHMvN7m+hTkkEckC+xa5OEujpc/NVpvz7DO9rTb3MiJO1Jf2OroXF2vcvR8hH6V0kGlFgezI7QiFzahY8OGouuWP2NxT3+9u6Cqf8AbTVtPU7cay72Tx5uC7qQEez4th9K6fdWREx6VpbXTzn1pTcJSa7MJnTXQcle3+XxInS/L98LLl1/shjXcXHKMdvxdOm1PfaTNzhbVi7y7y2jj+V/AfkSD8KMSKVftNH/AKEnpdsn/wDatMyhjSW+/JIr4ypiSxtSIFhAjWE3hwQCNwd6lQ0udkcw1IbR9pNx/p/tTCjVtJ4qNDhup6jCxxadkK7Q9mrWLAJ8FwbBx06EcxSpf7DvZHeNeVgCIABBYz8Y6/CnDH59atc9TdF/WpcCPvNpWur7RlQCdhwBkcyN/jRduYNNrrx6bfTVLOGbIqvbv6/lL952TDKVO7NLAciTAkHlwHSiGaWrljCyzDWY2Ahd9twARPpxpgTIbRHCf9QB+R41NiMsDgBwtwAyA28Ec+FQjDEL0BXb7ykLC2yqKNPLqOdWhe6pPxFQ37rSTAMk8D1NR983uCvJleiroxgUSUA+VWLeZLyAPxFDWuMeKD41NbXpbUfCulZlCIX7jOBpgH1rbCYZyfE4qkjN7o+VWRqPl6bUQKEi1l7m2GKhXmYaPgR/YVay56qXcMzKRJPqelZl13ar8O4FsKeoE22mkUNzDCqTuJFT4G7IqzewxYbbetWgqdrsjpKG2LYXYCK3xOJVELMwAA5mq7k+9FL2c4M3rtvU0WLfjuHrHBRSu85jDBfrzTy1rbnQIjgcoa9bF5vCwJ0+akzvVlMKahbNb162xw0KFACyPgT8qud4ABLSaypWgAtP7WU3PkzbeOE7LX7v51Lh7YUyONRC+swDJqYMAZgz61MazjumEuOqle5c6kfAVVvvfjZvoKkLtPlyrxmPSgLvNCABwWuExD6f4hM/pU4uzwJNV9PlWhmYFDnKLKFY38/nWVSYN1PzrKzMshc8fss3+JiLK+rSat5EmHwVzvGx9iCIZZAkeurlQgfZ8v8Ann+gfvXtz7ObbCDeY/8AiK9mTwUJrvLcpNvIIt9nWJttjMw7pg6NcVlZTIIYHh8Zroc1ynLuwj2CTYxt23qgNAXeOH50RXs5jP8A8nf+S/tW5kgroTmomeuc5pll7D22u3s1vqoHRZJ8tq5xd7a40ExirpHImAY+VdmXAL6LD0A+0NNWX3fIofk6muIjtxj/AP7i58x+1a4jthjbiFHvuyHipIgxvvtXF0haBBXXcrW5aZLiiSB8wRwqzmOYYm7sTpX3V2+Z51x8dtcdEd6P6RXh7ZY4/wCL9K8luGxDW5A4R5/pek6vRLsxF/JdRw2BZ7iW4MuwEzwB4n4CTXTMCRIUCAu0dAOFcg+yPF4jE4h7txiy2U6ba7mw/wBof5iuxYdYYMOexFW4OgaTTOpUuJrCo4RoEVtkVHjbmm27dFY/IE1ugrTEiVIPMRVCQuTMpPAmf5QT+VWcNh7o27u43qproVuwo4AD0FSBRzqFv8cwauPt+1a7HOOgSDcw99QW7l9uQFX8uybE3UD+G3PANMx5iNqcQ1bKx5UYwFIG8nrlCA4x50gdc0rr2ZxHN0+taXezuKHssh+JH6U2m51r1QOtM7nR4e5/KHvdXj7JKbLMYv8Ahz6NR3LsstwJTxQCZJ2PPnFHdFUC+l226fWipYdlMmPePwgq13PAn2V2xbVRCgD0AqxVK1dbkv1q2hPOmlKQfMcEmskmNW/7/wDPOhr4O3uJ1qTOk8PnTNiUBUzy3ofSW0QHZgfZNNUluUrS5et6dC7LHACqgFsdfkauvXgFa+hnMkrm1sogBVR3cyAfkal75fP+mpGaKhNys7s3itNcrDiE6N/TUNzErEBXn0r1mqG49d3ZqzvDljYoD8DH5fvVe/mYH+E3zH71ly5VPE9azurOa7vDuS3bMG9z/cKyqWryrK7urOfqt7y/l6KBblbi5WVlPU69W5VfNc1t2LTXH9lR0P6VlZWFcuI9qu013GXJYkID4F6eZ86X6ysrka2Feg1lZXLluDUqmsrKxcu3fYu04JwgCst1tRInUSFIPHkpUfA11DB23Alip9BH61lZTG6IDqr1u71Fe3YiaysrFqqd5O9RNfFZWUSyVp96j1rZLpIBHMVlZXLl42JPOvRioNeVlcuV7D3pqpnOF1lCOO4PpxFZWVm61W8AioukcatzWVlCtCjv+yfShuqsrK0Ll4zVqz1lZWrFBcu1Gz1lZXLio2eq9xqysrlirXHqpcub1lZXLlH3tZWVlctX/9k=;opacity=60;align=center;" vertex="1" parent="VBnDBWcCPKf7bS7GrJzQ-1">
                    <mxGeometry x="21" y="21" width="651" height="200" as="geometry"/>
                </mxCell>
                <mxCell id="VBnDBWcCPKf7bS7GrJzQ-3" value="&lt;font style=&quot;font-size: 25px&quot;&gt;LA DIETETIQUE&lt;/font&gt;" style="rounded=0;whiteSpace=wrap;html=1;strokeColor=#66FFFF;strokeWidth=5;opacity=0;direction=west;" vertex="1" parent="VBnDBWcCPKf7bS7GrJzQ-1">
                    <mxGeometry x="21" y="84" width="651" height="84" as="geometry"/>
                </mxCell>
            </root>
        </mxGraphModel>
    </diagram>
</mxfile>